<svg width="1199.074219" height="879.060120" viewBox="0 0 1199.07 879.06" fill="none" xmlns="http://www.w3.org/2000/svg" xmlns:xlink="http://www.w3.org/1999/xlink">
	<desc>
			Created with Pixso.
	</desc>
	<defs/>
	<path id="Line 33" d="M14.0234 0L264.254 73.1236Q314.836 87.9043 346.441 130.069Q378.051 172.233 378.051 224.929Q378.051 245.885 385.785 265.166Q393.281 283.856 407.074 298.658Q420.867 313.459 438.98 322.258Q457.668 331.334 478.57 332.813L609.805 342.096L610.332 342.156Q672.203 349.176 718.797 390.487Q765.391 431.798 779.773 492.385L786.062 518.883Q789.852 534.857 800.445 546.867Q810.57 558.344 824.949 564.166Q839.332 569.989 854.59 568.786Q870.551 567.529 884.391 558.691Q913.281 540.238 946.945 536.045Q979.203 532.027 1010.43 541.703Q1041.66 551.379 1066 572.934Q1091.4 595.425 1104.79 626.981L1197.02 844.227L1151 863.766L1058.77 646.52Q1049.79 625.365 1032.85 610.364Q1016.58 595.951 995.637 589.463Q974.695 582.975 953.125 585.662Q930.672 588.458 911.305 600.829Q886.938 616.392 858.516 618.632Q831.5 620.76 806.188 610.512Q780.875 600.264 762.949 579.941Q744.09 558.561 737.414 530.43L731.125 503.932Q720.395 458.724 685.625 427.9Q650.859 397.075 604.691 391.837L607.512 366.996L605.746 391.934L475.043 382.688Q444.508 380.528 417.133 367.233Q390.637 354.363 370.492 332.743Q350.348 311.122 339.379 283.783Q328.051 255.541 328.051 224.929Q328.051 188.893 306.434 160.058Q284.82 131.224 250.23 121.116L0 47.9928L14.0234 0ZM1197 844.216L1197.02 844.227C1202.5 857.114 1196.67 871.538 1183.78 877.008C1170.89 882.479 1156.47 876.653 1151 863.766L1151.01 863.74L1197 844.216Z" fill="#FFFFFF" fill-opacity="1.000000" fill-rule="evenodd"/>
</svg>
