<svg width="995" height="674" viewBox="0 0 995 674" fill="none" xmlns="http://www.w3.org/2000/svg">
<path d="M969.463 673.38C983.27 673.38 994.463 662.187 994.463 648.38C994.463 634.573 983.27 623.38 969.463 623.38V673.38ZM275 240.348L294.709 224.967L275 240.348ZM726.335 612.241L716.618 635.276L726.335 612.241ZM290.816 260.614L310.525 245.234L290.816 260.614ZM429.01 350.542L421.658 374.436L429.01 350.542ZM-199.549 48.3763L53.7634 122.4L67.788 74.4074L-185.525 0.383476L-199.549 48.3763ZM407.782 370.167L421.658 374.436L436.362 326.647L422.486 322.378L407.782 370.167ZM675.996 618.139L716.618 635.276L736.053 589.207L695.431 572.07L675.996 618.139ZM904.975 673.38H969.463V623.38H904.975V673.38ZM209.369 208.178L216.302 214.3L249.395 176.818L242.462 170.697L209.369 208.178ZM255.291 255.728L271.107 275.995L310.525 245.234L294.709 224.967L255.291 255.728ZM216.302 214.3C230.548 226.878 243.6 240.746 255.291 255.728L294.709 224.967C281.121 207.555 265.952 191.437 249.395 176.818L216.302 214.3ZM716.618 635.276C776.231 660.424 840.275 673.38 904.975 673.38V623.38C846.951 623.38 789.514 611.76 736.053 589.207L716.618 635.276ZM422.486 322.378C378.147 308.735 339.065 281.807 310.525 245.234L271.107 275.995C305.947 320.64 353.655 353.512 407.782 370.167L422.486 322.378ZM544.716 486.225C569.476 545.716 616.625 593.092 675.996 618.139L695.431 572.07C648.147 552.123 610.597 514.392 590.877 467.012L544.716 486.225ZM590.877 467.012C562.809 399.574 506.179 348.129 436.362 326.647L421.658 374.436C477.261 391.545 522.362 432.516 544.716 486.225L590.877 467.012ZM53.7634 122.4C111.303 139.215 164.432 168.502 209.369 208.178L242.462 170.697C192.018 126.158 132.379 93.2825 67.788 74.4074L53.7634 122.4Z" fill="#F9F9F9" fill-opacity="0.75"/>
</svg>
