<svg width="985" height="673" viewBox="0 0 985 673" fill="none" xmlns="http://www.w3.org/2000/svg">
<path d="M25 673C11.1929 673 0 661.807 0 648C0 634.193 11.1929 623 25 623V673ZM719.463 239.968L699.754 224.587L719.463 239.968ZM268.128 611.861L277.845 634.896L268.128 611.861ZM703.647 260.234L683.938 244.854L703.647 260.234ZM565.453 350.162L572.805 374.056L565.453 350.162ZM1194.01 47.9964L940.699 122.02L926.675 74.0275L1179.99 0.00359344L1194.01 47.9964ZM586.681 369.787L572.805 374.056L558.1 326.267L571.976 321.998L586.681 369.787ZM318.467 617.759L277.845 634.896L258.41 588.827L299.032 571.69L318.467 617.759ZM89.4875 673H25V623H89.4875V673ZM785.094 207.798L778.161 213.92L745.068 176.439L752.001 170.317L785.094 207.798ZM739.172 255.348L723.356 275.615L683.938 244.854L699.754 224.587L739.172 255.348ZM778.161 213.92C763.915 226.498 750.863 240.366 739.172 255.348L699.754 224.587C713.342 207.175 728.511 191.057 745.068 176.439L778.161 213.92ZM277.845 634.896C218.232 660.044 154.188 673 89.4875 673V623C147.512 623 204.949 611.381 258.41 588.827L277.845 634.896ZM571.976 321.998C616.316 308.355 655.398 281.427 683.938 244.854L723.356 275.615C688.516 320.26 640.808 353.132 586.681 369.787L571.976 321.998ZM449.747 485.845C424.987 545.336 377.838 592.713 318.467 617.759L299.032 571.69C346.316 551.743 383.866 514.012 403.586 466.632L449.747 485.845ZM403.586 466.632C431.654 399.194 488.284 347.749 558.1 326.267L572.805 374.056C517.202 391.165 472.101 432.136 449.747 485.845L403.586 466.632ZM940.699 122.02C883.159 138.835 830.031 168.122 785.094 207.798L752.001 170.317C802.445 125.779 862.084 92.9026 926.675 74.0275L940.699 122.02Z" fill="#F9F9F9" fill-opacity="0.75"/>
</svg>
