<svg width="459.601562" height="488.069214" viewBox="0 0 459.602 488.069" fill="none" xmlns="http://www.w3.org/2000/svg" xmlns:xlink="http://www.w3.org/1999/xlink">
	<desc>
			Created with Pixso.
	</desc>
	<defs/>
	<path id="Line 33" d="M441.24 480.139L431.125 456.718C427.924 449.305 427.084 441.085 428.725 433.178C434.557 405.055 409.207 380.393 381.256 386.995L352.133 393.874C312.568 403.218 271.285 387.682 247.699 354.573L237.504 340.261C217.969 312.839 213.543 277.428 225.73 246.043L238.904 212.113C241.432 205.607 243.27 198.854 244.391 191.965L244.447 191.611C249.105 162.961 230.908 135.559 202.693 128.741C196.09 127.145 189.25 126.775 182.514 127.649L132.861 134.088C72.75 141.883 19.5801 94.8351 20.002 34.222L20.2402 0.139282" stroke="#F5F5F5" stroke-opacity="0.560000" stroke-width="40.000000"/>
</svg>
