<svg width="200" height="24" viewBox="0 0 200 24" fill="none" xmlns="http://www.w3.org/2000/svg">
<path d="M0.0195313 23V5.5H16.4445V23H11.5445V8.325L12.6445 9.425H3.81953L4.89453 8.325V23H0.0195313ZM20.1855 23V5.5H28.1855C29.7855 5.5 31.1605 5.75833 32.3105 6.275C33.4772 6.79167 34.3772 7.54167 35.0105 8.525C35.6439 9.49167 35.9605 10.6417 35.9605 11.975C35.9605 13.2917 35.6439 14.4333 35.0105 15.4C34.3772 16.3667 33.4772 17.1167 32.3105 17.65C31.1605 18.1667 29.7855 18.425 28.1855 18.425H22.9355L25.1355 16.275V23H20.1855ZM25.1355 16.8L22.9355 14.525H27.8855C28.9189 14.525 29.6855 14.3 30.1855 13.85C30.7022 13.4 30.9605 12.775 30.9605 11.975C30.9605 11.1583 30.7022 10.525 30.1855 10.075C29.6855 9.625 28.9189 9.4 27.8855 9.4H22.9355L25.1355 7.125V16.8ZM47.0473 23.35C45.6473 23.35 44.3556 23.125 43.1723 22.675C41.9889 22.225 40.9556 21.5917 40.0723 20.775C39.2056 19.9417 38.5306 18.975 38.0473 17.875C37.5639 16.775 37.3223 15.5667 37.3223 14.25C37.3223 12.9333 37.5639 11.725 38.0473 10.625C38.5306 9.525 39.2056 8.56667 40.0723 7.75C40.9556 6.91667 41.9889 6.275 43.1723 5.825C44.3556 5.375 45.6473 5.15 47.0473 5.15C48.4639 5.15 49.7556 5.375 50.9223 5.825C52.1056 6.275 53.1306 6.91667 53.9973 7.75C54.8639 8.56667 55.5389 9.525 56.0223 10.625C56.5223 11.725 56.7723 12.9333 56.7723 14.25C56.7723 15.5667 56.5223 16.7833 56.0223 17.9C55.5389 19 54.8639 19.9583 53.9973 20.775C53.1306 21.5917 52.1056 22.225 50.9223 22.675C49.7556 23.125 48.4639 23.35 47.0473 23.35ZM47.0473 19.25C47.7139 19.25 48.3306 19.1333 48.8973 18.9C49.4806 18.6667 49.9806 18.3333 50.3973 17.9C50.8306 17.45 51.1639 16.9167 51.3973 16.3C51.6473 15.6833 51.7723 15 51.7723 14.25C51.7723 13.4833 51.6473 12.8 51.3973 12.2C51.1639 11.5833 50.8306 11.0583 50.3973 10.625C49.9806 10.175 49.4806 9.83333 48.8973 9.6C48.3306 9.36667 47.7139 9.25 47.0473 9.25C46.3806 9.25 45.7556 9.36667 45.1723 9.6C44.6056 9.83333 44.1056 10.175 43.6723 10.625C43.2556 11.0583 42.9223 11.5833 42.6723 12.2C42.4389 12.8 42.3223 13.4833 42.3223 14.25C42.3223 15 42.4389 15.6833 42.6723 16.3C42.9223 16.9167 43.2556 17.45 43.6723 17.9C44.1056 18.3333 44.6056 18.6667 45.1723 18.9C45.7556 19.1333 46.3806 19.25 47.0473 19.25ZM67.9439 23.35C66.5606 23.35 65.2773 23.1333 64.0939 22.7C62.9273 22.25 61.9106 21.6167 61.0439 20.8C60.1939 19.9833 59.5273 19.025 59.0439 17.925C58.5606 16.8083 58.3189 15.5833 58.3189 14.25C58.3189 12.9167 58.5606 11.7 59.0439 10.6C59.5273 9.48333 60.1939 8.51667 61.0439 7.7C61.9106 6.88333 62.9273 6.25833 64.0939 5.825C65.2773 5.375 66.5606 5.15 67.9439 5.15C69.5606 5.15 71.0023 5.43333 72.2689 6C73.5523 6.56667 74.6189 7.38333 75.4689 8.45L72.3189 11.3C71.7523 10.6333 71.1273 10.125 70.4439 9.775C69.7773 9.425 69.0273 9.25 68.1939 9.25C67.4773 9.25 66.8189 9.36667 66.2189 9.6C65.6189 9.83333 65.1023 10.175 64.6689 10.625C64.2523 11.0583 63.9189 11.5833 63.6689 12.2C63.4356 12.8167 63.3189 13.5 63.3189 14.25C63.3189 15 63.4356 15.6833 63.6689 16.3C63.9189 16.9167 64.2523 17.45 64.6689 17.9C65.1023 18.3333 65.6189 18.6667 66.2189 18.9C66.8189 19.1333 67.4773 19.25 68.1939 19.25C69.0273 19.25 69.7773 19.075 70.4439 18.725C71.1273 18.375 71.7523 17.8667 72.3189 17.2L75.4689 20.05C74.6189 21.1 73.5523 21.9167 72.2689 22.5C71.0023 23.0667 69.5606 23.35 67.9439 23.35ZM81.4336 23V8.325L82.5336 9.425H76.0586V5.5H91.6586V9.425H85.2086L86.3086 8.325V23H81.4336ZM102.296 23.35C100.896 23.35 99.6046 23.125 98.4213 22.675C97.238 22.225 96.2046 21.5917 95.3213 20.775C94.4546 19.9417 93.7796 18.975 93.2963 17.875C92.813 16.775 92.5713 15.5667 92.5713 14.25C92.5713 12.9333 92.813 11.725 93.2963 10.625C93.7796 9.525 94.4546 8.56667 95.3213 7.75C96.2046 6.91667 97.238 6.275 98.4213 5.825C99.6046 5.375 100.896 5.15 102.296 5.15C103.713 5.15 105.005 5.375 106.171 5.825C107.355 6.275 108.38 6.91667 109.246 7.75C110.113 8.56667 110.788 9.525 111.271 10.625C111.771 11.725 112.021 12.9333 112.021 14.25C112.021 15.5667 111.771 16.7833 111.271 17.9C110.788 19 110.113 19.9583 109.246 20.775C108.38 21.5917 107.355 22.225 106.171 22.675C105.005 23.125 103.713 23.35 102.296 23.35ZM102.296 19.25C102.963 19.25 103.58 19.1333 104.146 18.9C104.73 18.6667 105.23 18.3333 105.646 17.9C106.08 17.45 106.413 16.9167 106.646 16.3C106.896 15.6833 107.021 15 107.021 14.25C107.021 13.4833 106.896 12.8 106.646 12.2C106.413 11.5833 106.08 11.0583 105.646 10.625C105.23 10.175 104.73 9.83333 104.146 9.6C103.58 9.36667 102.963 9.25 102.296 9.25C101.63 9.25 101.005 9.36667 100.421 9.6C99.8546 9.83333 99.3546 10.175 98.9213 10.625C98.5046 11.0583 98.1713 11.5833 97.9213 12.2C97.688 12.8 97.5713 13.4833 97.5713 14.25C97.5713 15 97.688 15.6833 97.9213 16.3C98.1713 16.9167 98.5046 17.45 98.9213 17.9C99.3546 18.3333 99.8546 18.6667 100.421 18.9C101.005 19.1333 101.63 19.25 102.296 19.25ZM120.543 21.65L122.018 18.175C122.768 18.5583 123.552 18.85 124.368 19.05C125.185 19.25 125.977 19.3667 126.743 19.4C127.51 19.4333 128.202 19.3833 128.818 19.25C129.452 19.1 129.952 18.875 130.318 18.575C130.685 18.275 130.868 17.8833 130.868 17.4C130.868 16.8667 130.643 16.4833 130.193 16.25C129.76 16 129.185 15.875 128.468 15.875H123.993V12.25H128.068C128.735 12.25 129.252 12.1167 129.618 11.85C129.985 11.5833 130.168 11.225 130.168 10.775C130.168 10.3417 130.01 10 129.693 9.75C129.377 9.48333 128.952 9.3 128.418 9.2C127.885 9.08333 127.285 9.04167 126.618 9.075C125.952 9.10833 125.26 9.23333 124.543 9.45C123.827 9.65 123.135 9.925 122.468 10.275L121.018 6.575C122.202 5.99167 123.443 5.59167 124.743 5.375C126.043 5.15833 127.31 5.10833 128.543 5.225C129.777 5.34167 130.893 5.61667 131.893 6.05C132.893 6.46667 133.685 7.025 134.268 7.725C134.868 8.425 135.168 9.25 135.168 10.2C135.168 11.0333 134.943 11.775 134.493 12.425C134.043 13.075 133.435 13.5833 132.668 13.95C131.902 14.3167 131.018 14.5 130.018 14.5L130.143 13.45C131.293 13.45 132.293 13.65 133.143 14.05C134.01 14.45 134.677 15 135.143 15.7C135.627 16.3833 135.868 17.175 135.868 18.075C135.868 18.925 135.643 19.6833 135.193 20.35C134.76 21 134.152 21.55 133.368 22C132.585 22.45 131.685 22.7833 130.668 23C129.668 23.2333 128.593 23.3417 127.443 23.325C126.293 23.325 125.127 23.1833 123.943 22.9C122.777 22.6167 121.643 22.2 120.543 21.65ZM136.795 23L144.52 5.5H149.395L157.145 23H151.995L145.945 7.925H147.895L141.845 23H136.795ZM141.02 19.6L142.295 15.95H150.845L152.12 19.6H141.02ZM159.15 23V5.5H164.025V15.775L171.25 5.5H175.9V23H171.025V12.75L163.825 23H159.15ZM167.5 4.45C165.684 4.45 164.375 4.1 163.575 3.4C162.775 2.68333 162.375 1.675 162.375 0.374999H165.7C165.717 0.958332 165.867 1.39167 166.15 1.675C166.434 1.95833 166.884 2.1 167.5 2.1C168.134 2.1 168.592 1.95833 168.875 1.675C169.175 1.39167 169.334 0.958332 169.35 0.374999H172.675C172.675 1.675 172.267 2.68333 171.45 3.4C170.634 4.1 169.317 4.45 167.5 4.45ZM179.658 23V5.5H183.733L190.958 17.4H188.808L195.883 5.5H199.958L200.008 23H195.433L195.408 12.425H196.183L190.908 21.275H188.708L183.283 12.425H184.208V23H179.658Z" fill="#313132"/>
</svg>
